<?xml version="1.0" encoding="utf-8"?>
<!-- Generator: Adobe Illustrator 19.1.0, SVG Export Plug-In . SVG Version: 6.00 Build 0)  -->
<svg version="1.1" xmlns="http://www.w3.org/2000/svg" xmlns:xlink="http://www.w3.org/1999/xlink" x="0px" y="0px"
	 viewBox="0 0 525 661" style="enable-background:new 0 0 525 661;" xml:space="preserve">
<style type="text/css">
	.st0{fill:#020202;}
	.st1{opacity:0.71;fill:#020202;}
</style>
<g id="Background">
</g>
<g id="Objects">
	<g>
		<g>
			<g>
				<g>
					<path class="st0" d="M352.7,277.2c0-0.3-10.3,26.8-8.9,48.1l3.7,1.6l0.6-2.9c0,0-0.5-21.2,8.6-46.2L352.7,277.2z"/>
					<path class="st0" d="M359.1,273.5c0,0-2.2,29.1,5.7,49.4l1.7-3.8c0,0-7-29.5-5-44.6C361.5,274.5,360.3,273,359.1,273.5z"/>
					<g>
						<path class="st0" d="M286,224.9c0,0,2.9,0.2,12.1,11.5c9.2,11.3,23.3,42.5,47.3,43.5c23.9,1,26.4-27.5,26.4-27.5l19.3,2.1
							c0,0,1.4,37.1-30.1,46.5c-32.5,9.8-56.3-16.4-62.9-28C291.5,261.5,286,224.9,286,224.9z"/>
						<g>
							<path class="st0" d="M374,256.4c3.1,4.7,9.1,7.3,14.7,6.5"/>
						</g>
					</g>
					<g>
						<path class="st0" d="M380.6,255.8c-11.1-1.1-23.7-15.1-24.9-19.4c-1.2-4.4,4.9-3,9,0c4.2,3,11.2,6.3,13.2,5.7
							c2-0.6,10.8-12.3,15.1-11.8c4.4,0.5-1.9,11.8-1.9,11.8s12.2-10.1,16.1-10.1c3.9,0-4.6,10.1-4.6,10.1s14.7-9.5,17.6-8.4
							C423.1,234.7,407.7,258.4,380.6,255.8z"/>
						<g>
							<path class="st0" d="M380.2,252.2c0.8-2.2,2.5-4,4.5-5c2.1-1,4.5-1.2,6.7-0.4"/>
						</g>
					</g>
					<g>
						<path class="st0" d="M450.7,300.4c0,0,24.4,58,33.2,73.9c0,0-52.4,24.8-90.9,22.8l-18.6-76.5L450.7,300.4z"/>
						<polygon class="st0" points="450.7,300.4 443.2,290 376.4,308.9 374.5,320.6 						"/>
						<path class="st0" d="M445.8,293.6c0,0-55.8-17.5-81.8-21.7c0,0.1-3.8-1.3-2.5,2.6c6.2,2.9,86.5,22.1,86.5,22.1L445.8,293.6z"
							/>
					</g>
					<g>
						<path class="st0" d="M412.9,409.9c18.6,6.2,47.2,8.8,47.2,8.8s3.3-14.3,10.5-27.2l-31.1-70.9l-76.6,6.2l17.1,68.7
							C380.2,395.5,396.3,404.4,412.9,409.9z"/>
						<g>
							<line class="st0" x1="431.5" y1="334.6" x2="460.2" y2="418.7"/>
						</g>
						<g>
							<path class="st0" d="M470.7,390.8c-3.7,0.2-7.4,0.4-11.1,0.5c0.6,7.9,0.6,15.9-0.1,23.9"/>
						</g>
						<path class="st0" d="M431.5,334.6l8.1-14c0,0-68.1-4.2-71.4-5.5l-5.2,11.7C363.1,326.8,422.7,333.3,431.5,334.6z"/>
						<path class="st0" d="M359.2,276.3c0,0,64.1,44.5,74.9,53.9l2-3.4c0,0-61.4-45.6-74.5-52.3
							C361.5,274.5,358.4,271.3,359.2,276.3z"/>
					</g>
				</g>
				<g>
					<path class="st0" d="M333.4,185.1c0,0,7.5,47.2,7.8,51.3c0,0,117-0.2,133.6,0l2.3-53.1L333.4,185.1z"/>
					<path class="st0" d="M343.5,129.7c0,0,5.9,42.4,6.5,43.8c0.7,1.5,109.1-2.8,109.1-2.8v-41H343.5z"/>
					<polygon class="st0" points="357.2,111.4 352.6,44.3 424,42.3 424,110.3 					"/>
					<polygon class="st0" points="346.8,21.8 345,47 436.9,44.9 436.9,22 					"/>
					<path class="st0" d="M335.4,106.4l4.6,30.1c0,0,121.2-3.6,122.8-3.6v-28L335.4,106.4z"/>
					<polygon class="st0" points="326.9,168.5 330.5,188.6 479.7,186.7 481.3,164.3 					"/>
				</g>
				<g>
					<path class="st0" d="M415.8,340.2l30,91.6l-36.5,16.9c0,0-84.4-30-86.7-31.3l14.3-90.6L415.8,340.2z"/>
					<polygon class="st0" points="393,348.6 409.3,448.6 445.8,431.7 415.8,340.2 					"/>
					<g>
						<path class="st0" d="M409.3,448.6c4.7-7.4,8.8-14.6,13.5-22.1c8.3,1.6,14.7,3.5,23,5.1"/>
					</g>
					<path class="st0" d="M337,326.8l56,21.8c0,0,9.3-1.5,12.2-2.5c2.8-1.1,10.6-5.9,10.6-5.9l-58-19.5
						C357.9,320.6,342.9,326.1,337,326.8z"/>
					<path class="st0" d="M351.9,279.3c0,0,38.5,49.7,50.7,67.5l3.9-1.2c0,0-38.2-55.8-49.8-67.9
						C356.8,277.7,352.5,274.2,351.9,279.3z"/>
				</g>
			</g>
			<g>
				<path class="st0" d="M166.3,291.6c0,0-26.8,31.5-46.7,38.6c0,0-3.6,4.1-1.3,4.4c2.3,0.4,30-13,46.6-37.9
					C181.6,271.7,166.3,291.6,166.3,291.6z"/>
				<g>
					<path class="st0" d="M110.9,330.2c0,0-21.5,25.7-22.8,40c0,0,41.4,23.2,59.6,22.6c0,0,16,0.7,20.2-1.1
						c4.2-1.8,10.1-21.5,6.8-29.4c-3.3-7.9-31.9-8.8-41.4-14.4C123.9,342.4,110.9,330.2,110.9,330.2z"/>
					<path class="st0" d="M167.9,352.8c-1-0.3-26.4-4.7-52.5-29.9c0,0-7.2,1.7-8.8,5.9c-1.6,4.2,6.2,24.8,12.4,30.1
						c6.2,5.3,30.3,10.1,36.2,7.9c5.9-2.2,14.3-9.6,19.5-4.4C174.8,362.4,176.9,355.1,167.9,352.8z"/>
					<path class="st0" d="M122.3,357.6c4.2,2.1,1.1,10.3-4.7,9.8C111.9,366.9,118.1,355.6,122.3,357.6z"/>
					<g>
						<path class="st0" d="M154.2,367.8c-6.2,6.3-10.1,14.7-11,23.4"/>
					</g>
				</g>
			</g>
			<g>
				<path class="st0" d="M196.3,618.1c0,0,10.5,11.7,12.5,13.2c2,1.5,19.4,2.4,19.5,6.4c0.1,3.9-23,8.1-33.4,5.1
					c-10.5-2.9-30-18.8-31.5-21.5c-1.5-2.7,5.2-13.1,5.2-13.1L196.3,618.1z"/>
				<g>
					<path class="st0" d="M194.2,639.2c-11.9-4.8-21-14.3-29.4-24.1c-1.2,2.5-2,5-1.4,6.1c1.5,2.7,20,20.8,30.5,23.7
						c8.7,2.4,26.9-1.6,32.7-5.3C216.1,643.4,204.4,643.3,194.2,639.2z"/>
				</g>
			</g>
			<g>
				<path class="st0" d="M412.6,598.4c0,0,13.7-2.8,15.6-4.7c2-2,9.1-11.2,11.4-10.3c2.3,1-3.1,13-11.9,23.9
					c-8.8,10.9-25.9,16.6-26.4,16.1c-0.5-0.5-8.3-9.6-8.3-15.3C393,602.4,412.6,598.4,412.6,598.4z"/>
				<g>
					<path class="st0" d="M439.6,583.4c-0.4-0.2-0.9,0-1.5,0.3c-6.7,19.8-20.8,31.9-38.3,38c0.8,1,1.4,1.6,1.5,1.8
						c0.5,0.5,19.1-4.4,27.9-15.3C438,597.2,441.9,584.3,439.6,583.4z"/>
				</g>
			</g>
			<g>
				<path class="st0" d="M321.2,350c0,0,43.7,71.6,63.6,144.6c19.9,73,19.9,93.8,31,102.3c0,0-11.7,13.7-24.8,14.3
					c0,0,0-7.2-3.3-17.6c-3.3-10.4-36.9-115.3-104.1-184.4c0,0-18.1,71.7-42,119.2c-23.9,47.6-42.8,73-43.8,76.9
					c-1,3.9,1.3,15,1.3,15s-19.7,6.5-32.8-15.6c0,0,11.6-7.5,21.6-37.8c18.7-56.7,23.3-178.4,34.3-209.3L321.2,350z"/>
				<g>
					<g>
						<path class="st0" d="M282.8,410.5c1.9-5,3.9-10,5.8-15"/>
					</g>
					<g>
						<path class="st0" d="M278.7,403.1c8.1-9.3,18.7-16.4,30.3-20.5"/>
					</g>
					<g>
						<path class="st0" d="M287.4,388.9c3.5-1.9,7-3.8,10.5-5.7"/>
					</g>
					<g>
						<path class="st0" d="M286.2,368.2c2.6,8.2,3.9,16.8,3.8,25.4"/>
					</g>
					<g>
						<path class="st0" d="M295.5,366.8c2.2,8.2,1.8,17-1.1,24.9"/>
					</g>
					<g>
						<path class="st0" d="M215.2,383.7c11.8,0.4,23.6-5.6,30.3-15.3"/>
					</g>
					<g>
						<path class="st0" d="M310.2,362.4c6.2,6.6,15.1,10.5,24.2,10.6"/>
					</g>
					<g>
						<path class="st0" d="M196.3,604.7c-6.9,0.9-14.2-2.3-18.2-8"/>
					</g>
					<g>
						<path class="st0" d="M195.4,602.2c-2.2-2.6-4.3-5.2-6.5-7.8c3.3,1.3,6.5,2.7,9.8,4"/>
					</g>
					<g>
						<path class="st0" d="M408.7,591.7c-4,1.8-7.6,4.5-10.4,7.8"/>
					</g>
					<g>
						<path class="st0" d="M403.5,591c-2.2,1.7-4.3,3.5-6.5,5.2"/>
					</g>
				</g>
			</g>
			<g>
				<path class="st0" d="M239.6,211.9c0,0,2.7,11,1,13.9c-1.7,2.9-8.2,5.2-12.2,8.3c-4,3.1,21,40.3,38.7,40.3
					c17.7,0,28.7-13.4,27.7-21.5c-1-8.1-10.3-27.1-13.4-28.1c-3.2-1-9.6-0.7-14.6-4.2c-5-3.4-5.4-8.8-5.4-8.8H239.6z"/>
				<path class="st1" d="M241.1,223.8c0,0-0.1-4.6-0.5-6.9c0,0,10.5,0.6,21.9-1.2C262.5,215.7,247,222.6,241.1,223.8z"/>
				<g>
					<path class="st0" d="M238.6,238.4c5.4,1.8,11.3,2.2,16.9,1"/>
				</g>
				<g>
					<path class="st0" d="M263.5,239.1c4.4-1.3,8.7-3.1,12.7-5.4"/>
				</g>
			</g>
			<g>
				<path class="st0" d="M245,257.6c0,0,20,4.4,45-10c0,0,2.4,54,7.1,63.8c4.6,9.8,22.2,30.1,28.3,41.8c0,0-13.4,12.2-38.4,15.6
					c-24.9,3.4-54.7,0.5-68.7-10c0,0,4.6-15.4,14.9-32c10.3-16.6,11.5-39.1,7.3-48.6C236.4,268.6,245,257.6,245,257.6z"/>
				<g>
					<path class="st0" d="M236,338.2c8.4,8.5,18.2,15.5,28.9,20.7"/>
				</g>
				<g>
					<path class="st0" d="M235.7,348c4.6,3.8,9.7,7.1,15.1,9.6"/>
				</g>
				<g>
					<path class="st0" d="M310.8,338.5c-0.6,3.9-1.7,7.8-3.3,11.5"/>
				</g>
			</g>
			<g>
				<path class="st0" d="M154.2,421.9h15.6c0,0,27.4,9.1,45.3,12.4l-13.7,5.9C201.5,440.2,164.7,433,154.2,421.9z"/>
				<path class="st0" d="M154.2,421.9c0,0-32.5,88.3-36.6,100c0,0,35,22.2,82.9,22.2c0,0,8.8-79.5,3.3-103.9
					C203.8,440.2,164,423.6,154.2,421.9z"/>
				<polygon class="st0" points="215.2,434.3 225.3,533 200.5,544.1 201.5,440.2 				"/>
				<path class="st0" d="M211,436.1c0,0,4.1-24.7-10.5-47.1c0,0-3.5-1.3-1.5,3.8c1.9,5.1,10,29.3,8.2,45
					C207.1,437.8,210.6,439.9,211,436.1z"/>
			</g>
			<g>
				<path class="st0" d="M233.1,230.3c0,0,0.2,12.5,10.8,24.2c10.6,11.7,30.1,22.2,32.6,26.9c2.4,4.6,10.2,33,6.9,49.6
					c0,0-26.9,10.3-55.5,0c0,0,7-8.7,5.2-22c-1.8-13.4-8.9-29.8-11.3-32.2c0,0-20.6,3.4-33,25.2c-12.4,21.7-6.3,54.7,4.9,72.6
					c0,0-8.3,13.4-22.5,9c0,0-1-4.2,0-6.4c0,0-20.8-26.1-13.7-65.7c7.1-39.6,53.5-73.3,60.8-76.5
					C225.7,231.7,233.1,230.3,233.1,230.3z"/>
				
					<ellipse transform="matrix(0.9954 -9.606705e-02 9.606705e-02 0.9954 -26.5846 27.3701)" class="st0" cx="271" cy="289.8" rx="2.5" ry="3.2"/>
				
					<ellipse transform="matrix(0.9954 -9.606680e-02 9.606680e-02 0.9954 -28.8917 27.9655)" class="st0" cx="276" cy="314" rx="2.5" ry="3.2"/>
				<path class="st0" d="M233.1,230.3c0,0-4.5,0.1-10.1,1.5c-5.6,1.4,3.2,27.5,17.1,36c13.9,8.5,32.5,11.4,35.9,13.1
					c0,0-0.1-0.7-1.3-1.8c-1.2-1.2-3.7-2.9-6.8-5.1C261.8,269.5,234.9,252.8,233.1,230.3z"/>
				<path class="st0" d="M275.4,223.9c0,0,12.1,16.4,10.4,32c-1.7,15.5-7.3,22.1-10.4,25.5l6.5,40.1c0,0,6.6,6.8,8.6,7.3
					c2,0.5,14.3-3.2,16.9-5.1c0,0-6.9-15.4-7.5-18.4c-0.6-3-2.4-19.5-1.7-22.9s7.9-9.3,7.9-18.1c0-8.8-17.6-37.9-20-39.3
					C283.6,223.4,275.4,223.9,275.4,223.9z"/>
				<path class="st0" d="M271.8,223.1c0,0,8.8-2.1,11.6,1.1c2.8,3.2,9.5,13.8,10.8,26c1.3,12.2-17.7,31.3-18.8,31.3
					c-1.1,0,12.4-17.7,10.3-30C283.5,239.1,280.2,232,271.8,223.1z"/>
				<g>
					<path class="st0" d="M221.8,276.7c-0.1-5.9,0-12.7-6.6-18.3"/>
				</g>
				<g>
					<path class="st0" d="M212.7,239.7c3.9,1.4,6.8,4.9,8.3,8.7c1.5,3.9,1.9,8.1,2.2,12.2"/>
				</g>
				<g>
					<path class="st0" d="M181.3,316.8c1.2-6.2-2.4-12.9-8.2-15.4c2.2-0.7,4.7-0.4,6.6,0.7c2,1.2,3.4,3.2,3.9,5.4"/>
				</g>
				<g>
					<path class="st0" d="M236.6,312.2c5.9,2.7,11.5,6,16.6,10"/>
				</g>
				<g>
					<path class="st0" d="M237.1,305.3c3,0.4,6,0.4,9-0.1"/>
				</g>
				<path class="st0" d="M214.3,236.4c0,0,17.3,6.8,6.7,38.1c-9.8,28.8-26.3,50.6-38.6,65.6l0.8,5.3c0,0,33.8-38.3,42.3-71
					c8.6-32.7-3.8-37.7-8.1-39.1C213.2,233.9,214.3,236.4,214.3,236.4z"/>
				<g>
					<path class="st0" d="M276,281.8c4.2,12.9,6.8,25.5,8.4,38.6"/>
				</g>
				<g>
					<path class="st0" d="M298.3,244.2c3.1,5,6.4,11.9,7.4,16.8c1.4,6.8-2.2,12.2-7,19.7"/>
				</g>
				<g>
					<path class="st0" d="M171,377.5c4-5,11.2-7.1,17.2-5.1"/>
				</g>
				<g>
					<path class="st0" d="M173.7,371.8c1.2-2.7,4.3-4.4,7.3-4"/>
				</g>
			</g>
			<g>
				<path class="st0" d="M122.6,397.3c0,0,38.1-7,46.3-11.2c8.1-4.2,1,3.8,1,3.8s-29.6,8.4-43,9.2
					C126.9,399.1,119.7,401,122.6,397.3z"/>
				<path class="st0" d="M178.4,384.4c0,0-17.1,27.7-33.2,39.3c0,0-6.1,1.7-6.2,0c-0.1-1.7,24.5-21.7,36-39.9
					C175,383.7,177.8,379.4,178.4,384.4z"/>
				<path class="st0" d="M192.3,375c0,0,12.4,9.6,14.4,15.2c1.9,5.6-3.3,10.1-9.5,9.5c0,0-4.9,10.4-8.5,11.7
					c-3.6,1.3-9.1-4.9-9.1-4.9s-7.6,4.2-9.5,2.9c-2-1.3-2.5-7.4-2.5-7.4s-4.6-1.7-5.3-3.6c-0.7-2,10.2-16.7,11.7-18.6
					C175.5,377.9,192.3,375,192.3,375z"/>
				<g>
					<path class="st0" d="M145.2,421.9c0,0,29.4,12.4,53.8,15.8c0,0-24.6,70.2-28.8,80c0,0-9.4,0-12.7,0l-14.2,5.2
						c-0.2-0.1-42.2-14.5-57-27.4l50.7-71.4L145.2,421.9z"/>
					<path class="st0" d="M137,424.2c0,0,28,13,46.7,16l15.3-2.4c0,0-39-9.3-53.8-15.8L137,424.2z"/>
					<path class="st0" d="M143.2,522.9c0.1-0.2,38.7-79.2,40.5-82.8l15.3-2.4l-28.8,80h-12.7L143.2,522.9z"/>
					<path class="st0" d="M196,392.8c0,0,2.2,27.8-6.3,47.3c0,0-0.1,3.5,4.3-1.6c4.5-5.2,8.1-34.2,6.4-44.9
						C198.8,382.8,196,392.8,196,392.8z"/>
					<g>
						<path class="st0" d="M143.5,522.8c13-25,24.4-48.5,37.4-77"/>
					</g>
				</g>
				<g>
					<path class="st0" d="M114.5,395.5c0,0,14,2,17.4,3c0,0,12.9,16.4,38,32.9h-24.7L112.9,403L114.5,395.5z"/>
					<path class="st0" d="M62.7,504.7c0,0-24.6-33.6-33.7-69.4c0,0,75.1-31.8,85.5-39.8c0,0,26.8,25.4,34.3,31.1
						c7.4,5.8-35.6,46.2-35.6,46.2L62.7,504.7z"/>
					<path class="st0" d="M197.8,388.9c2-2.3,4.1,2.3,0.4,8.3c-2.2,3.5-15,22-34.9,33.1c0,0-2.6,2.3-5.9,0c0,0,20.6-13.8,25.9-19.9
						C188.8,404.3,197.8,388.9,197.8,388.9z"/>
					<path class="st0" d="M62.7,504.7l86.1-78.1c0,0,14.6,5.2,21.1,4.8L90,511.8c0,0-8.5-6.5-10.8-8.1L62.7,504.7z"/>
					<g>
						<path class="st0" d="M82,500.5c21.6-19.9,43.2-39.9,64.7-59.8"/>
					</g>
				</g>
			</g>
			<g>
				<path class="st0" d="M202.6,389.5c-1.6-0.8-3.6-0.8-5.2,0c-1.6,0.8-2.8,2.4-3.2,4.2"/>
			</g>
			<g>
				<path class="st0" d="M178.2,123.4c0,0-15.6-19.8-35.6-11.9c-20,7.8-25.1,54.8-10.7,65c9.8,7,13.3-2.7,13.3-2.7
					s2.6,20.5,10.8,21.8c8.2,1.3,10.3-16.2,10.3-16.2s2.7,26,12.1,21.4C187.8,196.1,196.8,136,178.2,123.4z"/>
				<path class="st0" d="M171.7,124.6c0,0-20.8,11.1-8.1,32C176.3,177.4,179.8,137.1,171.7,124.6z"/>
				<path class="st0" d="M296.6,156.6c1.4-8.2,6.2-15.8,6.2-15.8s10.4-15.3,9.4-27.4c-1-12.1-12.4-20.9-12.4-20.9s0.7-13-18.6-21.2
					c-19.2-8.1-64.3,2.3-86.5,19.9c-22.2,17.6-33.5,41-29.2,69.1c5.5,35.3,29.2,45.6,29.2,45.6s-8.1,7.5-6.6,11.3
					c1.6,3.8,21-1.5,21-1.5s3.4,9.2,11.1,9.8c7.6,0.6,18.6-17.4,18.6-17.4S291.1,187.4,296.6,156.6z"/>
				<path class="st0" d="M297.3,106.4c0,0-32.3,22-37.1,18.6c-4.9-3.4,0.5-13.7,3.9-18.6c0,0-32.3,37.1-43.5,39.1
					c-11.2,2-10.3-19.5-10.3-19.5s-1.5,29.3-11.2,36.2c0,0,12.7,7.8,2.9,16.1c0,0-3.4-3.9-6.8-9.8c0,0-8.8-6.4-18.6,0.5
					c-9.8,6.8-0.5,39.7,23.9,22c0,0,14.6,33.4,61.1,24.9c45.8-8.3,56.7-39.6,52.8-57.2C310.5,141.1,303.1,137.2,297.3,106.4z"/>
				<path class="st0" d="M239.6,178.6l38,3.9c-0.4,1.1-3.2,23.9-17.1,23.5C246.3,205.5,239.6,178.6,239.6,178.6z"/>
				<g>
					<path class="st0" d="M260.2,156.6c0,1.8,1.3,3.4,2.9,4c2.6,0.8,5.4-0.9,8,0c1.8,0.6,3,2.6,2.9,4.5c-0.1,1.9-1.4,3.6-3.1,4.5
						c-1.7,0.9-3.8,0.9-5.5,0.2"/>
				</g>
				<g>
					<path class="st0" d="M225.7,131.1c0.2-2.1,0.6-5.6,4.8-7.1c5-1.7,7.2,0.5,8.6,2.2"/>
				</g>
				<g>
					<path class="st0" d="M271.4,120.2c2.1-1.5,5.7-2.1,8.3-1.5c4.5,1.1,6.3,3.3,7.5,5.9"/>
				</g>
				<path class="st0" d="M214.3,181.6c0.4,5.9,16.1,8.1,17.3-1.6C232.7,170.2,213.7,172,214.3,181.6z"/>
				<path class="st0" d="M288.9,172.5c-0.1,6.8,18.4,8.1,18.4-2.4C307.4,160.8,289.1,163.4,288.9,172.5z"/>
				
					<ellipse transform="matrix(0.9993 -3.735158e-02 3.735158e-02 0.9993 -5.5974 8.9538)" class="st0" cx="236.8" cy="154.3" rx="3.7" ry="6"/>
				
					<ellipse transform="matrix(0.9993 -3.735158e-02 3.735158e-02 0.9993 -5.3398 10.6901)" class="st0" cx="283.4" cy="148.3" rx="3.7" ry="6"/>
				<g>
					<path class="st0" d="M246.7,195.6c3.4,5.6,7.8,10.3,14.3,10.3c2.8,0,4.5-0.8,6.3-2C262.1,198.5,254.2,195.4,246.7,195.6z"/>
				</g>
				<g>
					<path class="st0" d="M180,184.6c-2.3-1.5-3-4.8-1.8-7.3c1.2-2.4,4.1-3.9,6.8-3.7c2.7,0.1,5.3,1.7,6.9,3.9
						c1.7,2.2,2.5,4.9,2.8,7.6"/>
				</g>
				<g>
					<path class="st0" d="M191,177.8c-2.4,0.5-4.3,2.7-4.5,5.2c-0.1,2.5,1.6,4.9,3.9,5.6"/>
				</g>
				<g>
					<path class="st0" d="M172.4,117.6c-8.6,18.3-9.4,37.9-1.9,60.3"/>
				</g>
			</g>
		</g>
	</g>
</g>
</svg>
