<?xml version="1.0" encoding="utf-8"?>
<!-- Generator: Adobe Illustrator 19.1.0, SVG Export Plug-In . SVG Version: 6.00 Build 0)  -->
<svg version="1.1" xmlns="http://www.w3.org/2000/svg" xmlns:xlink="http://www.w3.org/1999/xlink" x="0px" y="0px"
	 viewBox="0 0 696 532.5" style="enable-background:new 0 0 696 532.5;" xml:space="preserve">
<style type="text/css">
	.st0{fill-rule:evenodd;clip-rule:evenodd;}
</style>
<g id="background">
</g>
<g id="objects">
	<g id="geek">
		<polygon class="st0" points="342.2,168.6 344.2,172.7 319.7,193.4 315.3,193.4 320.6,188.8 323.3,188.5 341.6,173.1 340.5,170 		
			"/>
		<path class="st0" d="M343.7,165.4L343.7,165.4c1.3,1.5,1.1,3.9-0.4,5.2L295,212c-1.5,1.3-3.9,1.1-5.2-0.4l0,0
			c-1.3-1.5-1.1-3.9,0.4-5.2l48.3-41.4C340.1,163.7,342.4,163.9,343.7,165.4z"/>
		<path class="st0" d="M378.5,124.8c-0.7,0.2-7.9,3.4-7.9,3.4l4.1,3.7l5.4-5.5L378.5,124.8z"/>
		<g>
			<path class="st0" d="M382.2,144c-4.1-10.7-10.2-18.3-13.7-17c-3.4,1.3-2.8,11.1,1.3,21.8c4.1,10.7,10.2,18.3,13.7,17
				C386.9,164.4,386.3,154.7,382.2,144L382.2,144z M369.1,128.5c1.3-0.5,4.1,2.7,4.7,3.5c2.9,3.6,5.2,8.3,6.8,12.6
				c1.7,4.3,3.1,9.3,3.4,13.9c0.1,1,0.1,5.2-1.1,5.7c-1.3,0.5-4.1-2.7-4.7-3.5c-2.9-3.6-5.2-8.3-6.8-12.6c-1.7-4.3-3.1-9.3-3.4-13.9
				C368,133.2,367.9,129,369.1,128.5z"/>
			<path class="st0" d="M380.7,144.5c-1.7-4.3-4-9-6.8-12.6c-0.6-0.8-3.4-4-4.7-3.5c-1.3,0.5-1.2,4.7-1.1,5.7
				c0.3,4.6,1.7,9.6,3.4,13.9c1.7,4.3,4,9,6.8,12.6c0.6,0.8,3.4,4,4.7,3.5c1.3-0.5,1.2-4.7,1.1-5.7
				C383.8,153.9,382.3,148.8,380.7,144.5z"/>
			<path class="st0" d="M378.1,138.7c-1.2-2.4-2.7-4.8-4.3-6.8l-0.1-0.2l-1.5,18.4c1.3,3,2.8,6,4.7,8.7
				C377.3,153.6,377.7,145.6,378.1,138.7z"/>
		</g>
		<path class="st0" d="M149.1,456.7c-0.3,3.7-1.2,8.5-2.3,13.6c-2.1,9.7-8.7,19.6-11.2,22.5c-2.1,2.4-4.7,4.2-7.7,5.5
			c-15.5-6.7-111.2-87-109.4-93.6c0.8-3.2,3.4-5,5.4-7.4c15.9-18.6,45.8,15.2,74.3,23.6c2.7,0.1,22.4-4.5,29.3-3.3L149.1,456.7z"/>
		<path class="st0" d="M398.7,463.8c-39.7-30.7-60.5-52.4-108.1-84.1c-13.1-8.7-24.4-10.7-36.4,0.7l-102.6,97.3l-45.2-59.7
			c58-31.6,137.1-126.7,178.2-96.8l116.6,97.5L398.7,463.8z"/>
		<path class="st0" d="M364.8,404.4l0.7-0.8l0.1,0.1l0.1,0.1l0.1,0.1l0.1,0.1l0.1,0.1l0.1,0.1l0.1,0.1l0.1,0.1l0.1,0.1l0.1,0.1
			l0.1,0.1l0.1,0.1l0.1,0.1l0.1,0.1l0.1,0l0,0l0,0l0,0l0,0l0,0l0,0h0l-0.7,0.8l0,0l0,0l0,0l0,0l0,0l0,0l0,0l0,0l-0.1-0.1l-0.1-0.1
			l-0.1-0.1l-0.1-0.1l-0.1-0.1l-0.1-0.1l-0.1-0.1l-0.1-0.1l-0.1-0.1l-0.1-0.1l-0.1-0.1l-0.1-0.1l-0.1-0.1L364.8,404.4L364.8,404.4z
			 M134.9,441.6l-0.7-0.8l0.1-0.1l0.2-0.2l0.2-0.2l0.2-0.2l0.2-0.2l0.2-0.2l0.3-0.2l0.1-0.1l0.7,0.8l-0.1,0.1l-0.3,0.2l-0.3,0.2
			l-0.2,0.2l-0.2,0.2l-0.2,0.2L134.9,441.6L134.9,441.6L134.9,441.6z M139.8,437.4l-0.7-0.8l0.1-0.1l0.4-0.3l0.4-0.3l0.4-0.3
			l0.4-0.3l0,0l0.7,0.8l0,0l-0.4,0.3l-0.4,0.3l-0.4,0.3L139.8,437.4L139.8,437.4L139.8,437.4z M144.7,433.2l-0.7-0.8l0.1-0.1
			l0.5-0.4l0.5-0.4l0.5-0.4l0.1-0.1l0.7,0.8l-0.1,0.1l-0.5,0.4l-0.5,0.4l-0.5,0.4L144.7,433.2L144.7,433.2z M149.7,429l-0.7-0.8
			l0.2-0.1l0.5-0.5l0.5-0.5l0.4-0.3l0.7,0.8l-0.4,0.3l-0.5,0.5l-0.5,0.5L149.7,429L149.7,429z M154.6,424.8l-0.7-0.8l0.3-0.2
			l0.6-0.5l0.6-0.5l0.2-0.1l0.7,0.8l-0.2,0.1l-0.6,0.5l-0.6,0.5L154.6,424.8L154.6,424.8z M159.5,420.6l-0.7-0.8l0.2-0.2l0.6-0.5
			l0.6-0.5l0.1-0.1l0.7,0.8l-0.1,0.1l-0.6,0.5l-0.6,0.5L159.5,420.6L159.5,420.6z M164.5,416.4l-0.7-0.8l0.5-0.4l0.7-0.6l0.5-0.4
			l0.7,0.8l-0.5,0.4L165,416L164.5,416.4L164.5,416.4z M169.4,412.2l-0.7-0.8l0.4-0.3l0.7-0.6l0.6-0.5l0.7,0.8l-0.6,0.5l-0.7,0.6
			L169.4,412.2L169.4,412.2z M174.4,408.1l-0.7-0.8l0.4-0.3l0.7-0.6l0.5-0.4l0.7,0.8l-0.5,0.4l-0.7,0.6L174.4,408.1L174.4,408.1z
			 M179.3,403.9l-0.7-0.8l0.6-0.5l0.7-0.6l0.3-0.3l0.7,0.8l-0.3,0.3l-0.7,0.6L179.3,403.9L179.3,403.9z M184.3,399.8l-0.7-0.8
			l0.2-0.1l0.8-0.6l0.7-0.6l0.7,0.8l-0.7,0.6l-0.8,0.6L184.3,399.8L184.3,399.8z M189.3,395.7l-0.7-0.8l0.6-0.5l0.8-0.6l0.3-0.3
			l0.7,0.8l-0.3,0.3l-0.8,0.6L189.3,395.7L189.3,395.7z M194.3,391.6l-0.7-0.8l0.2-0.2l0.8-0.6l0.6-0.5l0.7,0.8l-0.6,0.5l-0.8,0.6
			L194.3,391.6L194.3,391.6z M199.3,387.5l-0.7-0.8l0.7-0.6l0.8-0.6l0.1-0.1l0.7,0.8l-0.1,0.1l-0.8,0.6L199.3,387.5L199.3,387.5z
			 M204.3,383.4l-0.7-0.8l0.4-0.4l0.8-0.6l0.4-0.4l0.7,0.8l-0.4,0.4l-0.8,0.6L204.3,383.4L204.3,383.4z M209.4,379.3l-0.7-0.8
			l0.2-0.1l0.8-0.6l0.7-0.6l0.7,0.8l-0.7,0.6l-0.8,0.6L209.4,379.3L209.4,379.3z M214.4,375.3l-0.7-0.8l0.6-0.5l0.8-0.6l0.3-0.2
			l0.7,0.8l-0.3,0.2l-0.8,0.6L214.4,375.3L214.4,375.3z M219.5,371.3l-0.7-0.8l0.2-0.2l0.8-0.6l0.7-0.6l0.7,0.8l-0.7,0.6l-0.8,0.6
			L219.5,371.3L219.5,371.3z M224.6,367.3l-0.7-0.9l0.5-0.4l0.8-0.6l0.5-0.4l0.7,0.9l-0.5,0.4l-0.8,0.6L224.6,367.3L224.6,367.3z
			 M229.7,363.3l-0.7-0.9l0.6-0.5l0.7-0.6l0.3-0.3l0.7,0.9l-0.3,0.2l-0.7,0.6L229.7,363.3L229.7,363.3z M234.9,359.4l-0.7-0.9
			l0.6-0.5l0.7-0.5l0.4-0.3l0.6,0.9l-0.4,0.3l-0.7,0.5L234.9,359.4L234.9,359.4z M240,355.5l-0.6-0.9l0.4-0.3l0.7-0.5l0.6-0.5
			l0.6,0.9l-0.6,0.5l-0.7,0.5L240,355.5L240,355.5z M245.3,351.7l-0.6-0.9l0.6-0.4l0.7-0.5l0.5-0.3l0.6,0.9l-0.5,0.3l-0.7,0.5
			L245.3,351.7L245.3,351.7z M250.5,348l-0.6-0.9l0.5-0.3l0.6-0.4l0.6-0.4l0.1-0.1l0.6,0.9l-0.1,0.1l-0.6,0.4l-0.6,0.4L250.5,348
			L250.5,348z M255.9,344.3l-0.6-0.9l0.5-0.3l0.6-0.4l0.6-0.4l0.2-0.1l0.6,0.9l-0.2,0.1l-0.6,0.4l-0.6,0.4L255.9,344.3L255.9,344.3z
			 M261.3,340.8l-0.6-0.9l0.4-0.2l0.5-0.3l0.5-0.3l0.5-0.3l0,0l0.5,0.9l0,0l-0.5,0.3l-0.5,0.3l-0.5,0.3L261.3,340.8L261.3,340.8z
			 M266.9,337.6l-0.5-1l0.2-0.1l0.4-0.2l0.4-0.2l0.4-0.2l0.4-0.2l0.1-0.1l0.5,1l-0.1,0.1l-0.4,0.2l-0.4,0.2l-0.4,0.2l-0.4,0.2
			L266.9,337.6L266.9,337.6z M272.7,335.2l-0.2-1.1l0.3-0.1l0.3,0l0.3,0l0.2,0l0.2,0l0.2,0l0.2,0l0.2,0l0.2,0l0.2,0l0,0l-0.2,1l0,0
			l-0.2,0l-0.1,0l-0.2,0l-0.2,0l-0.2,0l-0.2,0l-0.2,0l-0.2,0l-0.2,0L272.7,335.2L272.7,335.2z M278.5,336.6l0.5-1l0,0l0.3,0.1
			l0.3,0.1l0.3,0.2l0.3,0.2l0.3,0.2l0.3,0.2l0.2,0.1l-0.5,0.9l-0.2-0.1l-0.3-0.2l-0.3-0.2l-0.3-0.2l-0.3-0.1l-0.3-0.1L278.5,336.6
			L278.5,336.6L278.5,336.6z M284,339.8l0.6-0.9l0,0l0.4,0.2l0.4,0.2l0.4,0.2l0.4,0.2l0.4,0.2l-0.6,0.9l-0.4-0.2l-0.4-0.2l-0.4-0.2
			l-0.4-0.2L284,339.8L284,339.8L284,339.8z M289.4,343.4l0.6-0.9l0.3,0.2l0.4,0.3l0.4,0.3l0.4,0.3l0.3,0.2l-0.6,0.9l-0.3-0.2
			l-0.4-0.3l-0.4-0.3l-0.4-0.3L289.4,343.4L289.4,343.4z M294.7,347.1l0.6-0.9l0.1,0l0.4,0.3l0.4,0.3l0.4,0.3l0.4,0.3l-0.6,0.9
			l-0.4-0.3l-0.4-0.3l-0.4-0.3L294.7,347.1L294.7,347.1L294.7,347.1z M299.9,350.9l0.6-0.9l0.3,0.2l0.5,0.4l0.5,0.4l0.5,0.4l0,0
			l-0.7,0.9l0,0l-0.5-0.4l-0.5-0.4l-0.5-0.3L299.9,350.9L299.9,350.9z M305,354.8l0.7-0.9l0.3,0.3l0.5,0.4l0.5,0.4l0.4,0.3l-0.7,0.9
			l-0.4-0.3l-0.5-0.4l-0.5-0.4L305,354.8L305,354.8z M310.1,358.8l0.7-0.8l0.1,0.1l0.5,0.4l0.5,0.4l0.5,0.4l0.1,0.1l-0.7,0.8
			l-0.1-0.1l-0.5-0.4l-0.5-0.4l-0.5-0.4L310.1,358.8L310.1,358.8z M315.2,362.8l0.7-0.8l0,0l0.5,0.4l0.5,0.4l0.5,0.4l0.2,0.1
			l-0.7,0.8l-0.2-0.1l-0.5-0.4l-0.5-0.4L315.2,362.8L315.2,362.8L315.2,362.8z M320.3,366.9l0.7-0.8l0.5,0.4l0.5,0.4l0.5,0.4
			l0.2,0.1l-0.7,0.8l-0.2-0.1l-0.5-0.4l-0.5-0.4L320.3,366.9L320.3,366.9z M325.3,371l0.7-0.8l0.5,0.4l0.5,0.4l0.5,0.4l0.2,0.2
			l-0.7,0.8l-0.2-0.2l-0.5-0.4l-0.5-0.4L325.3,371L325.3,371z M330.3,375.1l0.7-0.8l0.4,0.3l0.5,0.4l0.5,0.4l0.3,0.2l-0.7,0.8
			l-0.3-0.2l-0.5-0.4l-0.5-0.4L330.3,375.1L330.3,375.1z M335.3,379.2l0.7-0.8l0.3,0.2l0.5,0.4l0.5,0.4l0.4,0.4l-0.7,0.8l-0.4-0.4
			l-0.5-0.4l-0.5-0.4L335.3,379.2L335.3,379.2z M340.2,383.4l0.7-0.8l0.4,0.3l0.5,0.4l0.4,0.4l0.3,0.3l-0.7,0.8l-0.3-0.3l-0.4-0.4
			l-0.5-0.4L340.2,383.4L340.2,383.4z M345.2,387.5l0.7-0.8l0.3,0.3l0.4,0.4l0.4,0.4l0.4,0.4l0.1,0.1l-0.7,0.8l-0.1-0.1l-0.4-0.4
			l-0.4-0.4l-0.4-0.4L345.2,387.5L345.2,387.5z M350.1,391.7l0.7-0.8l0.3,0.2l0.4,0.3l0.4,0.3l0.4,0.3l0.2,0.2l-0.7,0.8l-0.2-0.2
			l-0.4-0.3l-0.4-0.3l-0.4-0.3L350.1,391.7L350.1,391.7z M355,395.9l0.7-0.8l0.1,0.1l0.3,0.3l0.3,0.3l0.3,0.3l0.3,0.3l0.2,0.2
			l-0.7,0.8l-0.2-0.2l-0.3-0.3l-0.3-0.3l-0.3-0.3L355,395.9L355,395.9L355,395.9z M359.9,400.2l0.7-0.8l0.1,0.1l0.3,0.2l0.3,0.2
			l0.3,0.2l0.3,0.2l0.2,0.2l0.2,0.2l0,0l-0.7,0.8l0,0l-0.2-0.2l-0.2-0.2l-0.3-0.2l-0.3-0.2l-0.3-0.2L359.9,400.2L359.9,400.2z"/>
		<path class="st0" d="M306.5,449.7c2.1,3,4.4,7,6.8,11.3c4.7,8.7,6.1,20.5,6.1,24.3c0,3.2-0.8,6.2-2.3,9.2c-16.2,5-141,6.2-144,0
			c-1.5-2.9-0.7-6-0.7-9.2c0-24.5,44.7-18.3,71.8-30.3c1.8-1.5,11.1-14,17.5-19.5C276.9,440.4,294.7,446,306.5,449.7z"/>
		<path class="st0" d="M319.7,480.8c0.6,3,0.3,13.5-1.9,13.9c-16.2,5-141,6.3-144.6,0.5c-1.2-1.9-3.7-7.2-2.1-10
			c0.4-0.6,1.3-0.6,1.5-0.6c54.3,8.3,91.8,1.2,146.4-5.1C319.5,479.4,319.5,480.2,319.7,480.8z"/>
		<path class="st0" d="M478.1,459.9c-2.2,2.5-23.3,46.6-53.6,38.2c-72.2-20.1-117-156.3-117-156.2l5.8,119.3l-79.6-7.8
			c0,0,28.5-151.2,35.8-158.6c8.9-8.9,27.1-12.8,27.1-12.8c12.2-2.3,63.1,62.3,89.2,86.8C420.3,401.3,459.8,441.7,478.1,459.9z"/>
		<path class="st0" d="M456.8,447.1l-0.7-0.4l0,0l0-0.1l0-0.1l0-0.1l0-0.1l0-0.1l0-0.1l0-0.1l0-0.1l0-0.1l0-0.1l0-0.1l0-0.1l0-0.1
			l0-0.1l0,0l0,0l0,0l0,0l0,0l0,0l0,0l0,0l0,0l0,0l0,0l0,0l0.7,0.4l0,0l0,0l0,0l0,0l0,0l0,0l0,0l0,0l0,0l0,0l0,0.1l0,0l0,0.1l0,0.1
			l0,0.1l0,0.1l0,0.1l0,0.1l0,0.1l0,0.1l0,0.1l0,0.1l0,0.1l0,0.1l0,0.1L456.8,447.1L456.8,447.1L456.8,447.1z M274.1,454.6l-0.8-0.1
			l0-0.2l0-0.3l0-0.3l0-0.3l0-0.3l0-0.2l0.8,0.1l0,0.2l0,0.3l0,0.3l0,0.3l0,0.3L274.1,454.6L274.1,454.6z M274.4,449.8l-0.8-0.1
			l0-0.3l0-0.4l0-0.4l0-0.4l0,0l0.8,0.1v0l0,0.5l0,0.4l0,0.4L274.4,449.8L274.4,449.8z M274.8,444.9l-0.8-0.1l0-0.2l0-0.5l0-0.5
			l0-0.4l0.8,0.1l0,0.4l0,0.5l0,0.5L274.8,444.9L274.8,444.9z M275.2,440.1l-0.8-0.1l0-0.4l0-0.6l0-0.6l0.8,0.1l0,0.6l0,0.6
			L275.2,440.1L275.2,440.1z M275.6,435.2l-0.8-0.1l0.1-0.6l0.1-0.7l0-0.3l0.8,0.1l0,0.3l-0.1,0.7L275.6,435.2L275.6,435.2z
			 M276,430.4l-0.8-0.1l0-0.6l0.1-0.7l0-0.3l0.8,0.1l0,0.3l-0.1,0.7L276,430.4L276,430.4z M276.4,425.6l-0.8-0.1l0-0.1l0.1-0.7
			l0.1-0.8l0.8,0.1l-0.1,0.8l-0.1,0.7L276.4,425.6L276.4,425.6z M276.8,420.7l-0.8-0.1l0.1-0.6l0.1-0.8l0-0.2l0.8,0.1l0,0.2
			l-0.1,0.8L276.8,420.7L276.8,420.7z M277.2,415.9l-0.8-0.1l0.1-0.6l0.1-0.8l0-0.2l0.8,0.1l0,0.2l-0.1,0.8L277.2,415.9L277.2,415.9
			z M277.7,411.1l-0.8-0.1l0.1-0.7l0.1-0.8l0-0.1l0.8,0.1l0,0.1l-0.1,0.8L277.7,411.1L277.7,411.1z M278.1,406.2l-0.8-0.1l0-0.1
			l0.1-0.9l0.1-0.7l0.8,0.1l-0.1,0.7L278.1,406.2L278.1,406.2L278.1,406.2z M278.5,401.4l-0.8-0.1l0-0.4l0.1-0.9l0-0.3l0.8,0.1
			l0,0.3l-0.1,0.9L278.5,401.4L278.5,401.4z M279,396.6l-0.8-0.1l0.1-0.9l0.1-0.7l0.8,0.1l-0.1,0.7L279,396.6L279,396.6z
			 M279.5,391.7l-0.8-0.1l0-0.5l0.1-0.9l0-0.3l0.8,0.1l0,0.3l-0.1,0.9L279.5,391.7L279.5,391.7z M279.9,386.9l-0.8-0.1l0-0.1
			l0.1-0.9l0.1-0.6l0.8,0.1l-0.1,0.6l-0.1,0.9L279.9,386.9L279.9,386.9z M280.4,382.1l-0.8-0.1l0.1-0.7l0.1-0.9l0-0.1l0.8,0.1l0,0.1
			l-0.1,0.9L280.4,382.1L280.4,382.1z M280.9,377.2l-0.8-0.1l0-0.3l0.1-0.9l0-0.4l0.8,0.1l0,0.4l-0.1,0.9L280.9,377.2L280.9,377.2z
			 M281.4,372.4l-0.8-0.1l0.1-0.9l0.1-0.7l0.8,0.1l-0.1,0.7L281.4,372.4L281.4,372.4z M281.9,367.6l-0.8-0.1l0.1-0.5l0.1-0.9l0-0.2
			l0.8,0.1l0,0.2l-0.1,0.9L281.9,367.6L281.9,367.6z M282.5,362.8l-0.8-0.1l0-0.1l0.1-0.9l0.1-0.7l0.8,0.1l-0.1,0.7L282.5,362.8
			L282.5,362.8L282.5,362.8z M283,358l-0.8-0.1l0.1-0.4l0.1-0.9l0-0.3l0.8,0.1l0,0.3l-0.1,0.9L283,358L283,358z M283.6,353.1
			l-0.8-0.1l0.1-0.7l0.1-0.8l0,0l0.8,0.1l0,0l-0.1,0.8L283.6,353.1L283.6,353.1z M284.2,348.3l-0.8-0.1l0-0.1l0.1-0.8l0.1-0.7
			l0.8,0.1l-0.1,0.7L284.2,348.3L284.2,348.3L284.2,348.3z M284.8,343.5l-0.8-0.1l0-0.1l0.1-0.8l0.1-0.7l0.8,0.1l-0.1,0.7
			L284.8,343.5L284.8,343.5L284.8,343.5z M285.4,338.7l-0.8-0.1l0.1-0.7l0.1-0.8l0-0.1l0.8,0.1l0,0.1l-0.1,0.8L285.4,338.7
			L285.4,338.7z M286.1,333.9l-0.8-0.1l0-0.3l0.1-0.7l0.1-0.5l0.8,0.1l-0.1,0.5l-0.1,0.7L286.1,333.9L286.1,333.9z M286.9,329.1
			l-0.8-0.1l0.1-0.4l0.1-0.7l0.1-0.5l0.8,0.1L287,328l-0.1,0.7L286.9,329.1L286.9,329.1z M287.6,324.3l-0.8-0.1l0-0.2l0.1-0.6
			l0.1-0.6l0-0.2l0.8,0.1l0,0.2l-0.1,0.6l-0.1,0.6L287.6,324.3L287.6,324.3z M288.5,319.5l-0.8-0.2l0-0.1l0.1-0.6l0.1-0.5l0.1-0.4
			l0.8,0.2l-0.1,0.4l-0.1,0.5l-0.1,0.6L288.5,319.5L288.5,319.5z M289.5,314.8l-0.8-0.2l0,0l0.1-0.5l0.1-0.5l0.1-0.5l0-0.2l0.8,0.2
			l0,0.2l-0.1,0.4l-0.1,0.5L289.5,314.8L289.5,314.8L289.5,314.8z M290.7,310.1l-0.8-0.2l0.1-0.3l0.1-0.3l0.1-0.3l0.1-0.3l0.1-0.3
			l0.8,0.3l-0.1,0.2l-0.1,0.3l-0.1,0.3l-0.1,0.3L290.7,310.1L290.7,310.1z M292.5,305.8l-0.7-0.5l0.1-0.1l0.1-0.2l0.1-0.1l0.1-0.1
			l0.1-0.1l0.1-0.1l0.1-0.1l0.1-0.1l0.1-0.1l0.1,0l0.3-0.1l0.1,0l0.1,0.8l0,0l-0.2,0l-0.1,0l-0.1,0l-0.1,0l-0.1,0.1l-0.1,0.1
			l-0.1,0.1l-0.1,0.1l-0.1,0.1L292.5,305.8L292.5,305.8L292.5,305.8z M296.4,305.3l0.3-0.8l0.1,0l0.3,0.1l0.3,0.1l0.3,0.1l0.3,0.2
			l0.2,0.1l-0.4,0.7l-0.1-0.1l-0.3-0.1l-0.3-0.1l-0.3-0.1L296.4,305.3L296.4,305.3L296.4,305.3z M300.6,307.6l0.5-0.7l0.2,0.1
			l0.4,0.3l0.4,0.3l0.4,0.3l-0.5,0.6l-0.4-0.3l-0.4-0.3l-0.4-0.3L300.6,307.6L300.6,307.6z M304.4,310.5l0.5-0.6l0.3,0.3l0.4,0.4
			l0.4,0.4l0.1,0.1l-0.5,0.6l-0.1-0.1l-0.4-0.4l-0.4-0.4L304.4,310.5L304.4,310.5z M307.9,313.8l0.6-0.6l0.2,0.2l0.5,0.4l0.5,0.5
			l0.1,0.1l-0.6,0.6l-0.1-0.1l-0.5-0.5l-0.4-0.4L307.9,313.8L307.9,313.8z M311.3,317.3l0.6-0.6l0,0l0.5,0.5l0.5,0.5l0.1,0.1
			l-0.6,0.5l-0.1-0.1l-0.5-0.5L311.3,317.3L311.3,317.3L311.3,317.3z M314.6,320.8l0.6-0.5l0.1,0.2l0.5,0.6l0.4,0.5l-0.6,0.5
			l-0.4-0.5l-0.5-0.6L314.6,320.8L314.6,320.8z M317.8,324.5l0.6-0.5l0.5,0.6l0.5,0.6l0,0l-0.6,0.5l0,0l-0.5-0.6L317.8,324.5
			L317.8,324.5z M320.9,328.2l0.6-0.5l0,0l0.5,0.7l0.5,0.6l-0.6,0.5l-0.5-0.6L320.9,328.2L320.9,328.2L320.9,328.2z M323.9,332
			l0.6-0.5l0.2,0.3l0.6,0.7l0.3,0.3l-0.6,0.5l-0.3-0.3l-0.6-0.7L323.9,332L323.9,332z M326.9,335.8l0.6-0.5l0.5,0.7l0.5,0.6
			l-0.6,0.5l-0.5-0.6L326.9,335.8L326.9,335.8z M329.9,339.6l0.6-0.5l0.4,0.5l0.6,0.7l0,0l-0.6,0.5l0,0l-0.6-0.7L329.9,339.6
			L329.9,339.6z M332.9,343.5l0.6-0.5l0.3,0.4l0.6,0.8l0.1,0.1l-0.6,0.5l-0.1-0.1l-0.6-0.8L332.9,343.5L332.9,343.5z M335.8,347.3
			l0.6-0.5l0.3,0.5l0.6,0.8l0,0l-0.7,0.5l0,0l-0.6-0.8L335.8,347.3L335.8,347.3z M338.7,351.2l0.7-0.5l0.4,0.6l0.5,0.7l-0.7,0.5
			l-0.5-0.7L338.7,351.2L338.7,351.2z M341.5,355.1l0.7-0.5l0.6,0.8l0.4,0.5l-0.7,0.5l-0.4-0.5L341.5,355.1L341.5,355.1z
			 M344.4,359.1l0.7-0.5l0.1,0.2l0.6,0.8l0.2,0.3l-0.7,0.5l-0.2-0.3l-0.6-0.8L344.4,359.1L344.4,359.1z M347.2,363l0.7-0.5l0.3,0.5
			l0.6,0.9l-0.7,0.5l-0.6-0.9L347.2,363L347.2,363z M350.1,367l0.7-0.5l0.6,0.8l0.4,0.5l-0.7,0.5l-0.4-0.5L350.1,367L350.1,367z
			 M352.9,370.9l0.7-0.5l0.2,0.3l0.6,0.9l0.1,0.1l-0.7,0.5l-0.1-0.1l-0.6-0.9L352.9,370.9L352.9,370.9z M355.7,374.9l0.7-0.5
			l0.5,0.7l0.4,0.6l-0.7,0.5l-0.4-0.6L355.7,374.9L355.7,374.9z M358.5,378.8l0.7-0.5l0.2,0.2l0.6,0.9l0.1,0.2l-0.7,0.5l-0.1-0.2
			l-0.6-0.9L358.5,378.8L358.5,378.8z M361.3,382.8l0.7-0.5l0.5,0.7l0.5,0.7l-0.7,0.5l-0.5-0.7L361.3,382.8L361.3,382.8z
			 M364.1,386.8l0.7-0.5l0.1,0.2l0.6,0.9l0.2,0.3l-0.7,0.5l-0.2-0.3l-0.6-0.9L364.1,386.8L364.1,386.8z M366.9,390.7l0.7-0.5
			l0.4,0.6l0.5,0.7l-0.7,0.5l-0.5-0.7L366.9,390.7L366.9,390.7z M369.7,394.7l0.7-0.5l0.1,0.1l0.6,0.9l0.3,0.4l-0.7,0.5l-0.3-0.4
			L369.7,394.7L369.7,394.7L369.7,394.7z M372.5,398.7l0.7-0.5l0.3,0.4l0.6,0.9l0,0l-0.7,0.5l0,0l-0.6-0.9L372.5,398.7L372.5,398.7z
			 M375.3,402.6l0.7-0.5l0.5,0.7l0.4,0.6l-0.7,0.5l-0.4-0.6L375.3,402.6L375.3,402.6z M378.1,406.6l0.7-0.5l0.1,0.2l0.6,0.8l0.2,0.3
			l-0.7,0.5l-0.2-0.3l-0.6-0.8L378.1,406.6L378.1,406.6z M380.9,410.6l0.7-0.5l0.3,0.4l0.6,0.8l0.1,0.1l-0.7,0.5l-0.1-0.1l-0.6-0.8
			L380.9,410.6L380.9,410.6z M383.7,414.5l0.7-0.5l0.3,0.5l0.6,0.8l0,0l-0.7,0.5l0,0L384,415L383.7,414.5L383.7,414.5z M386.5,418.5
			l0.7-0.5l0.4,0.5l0.6,0.8l-0.7,0.5l-0.6-0.8L386.5,418.5L386.5,418.5z M389.3,422.4l0.7-0.5l0.4,0.5l0.6,0.8l0,0.1l-0.7,0.5l0-0.1
			l-0.6-0.8L389.3,422.4L389.3,422.4z M392.2,426.3l0.7-0.5l0.2,0.3l0.5,0.7l0.2,0.2l-0.7,0.5l-0.2-0.2l-0.5-0.7L392.2,426.3
			L392.2,426.3z M395.1,430.3l0.7-0.5l0,0.1l0.5,0.7l0.4,0.5l-0.7,0.5l-0.4-0.5L395.1,430.3L395.1,430.3L395.1,430.3z M398,434.1
			l0.6-0.5l0.3,0.4l0.5,0.7l0.2,0.2l-0.6,0.5l-0.2-0.2l-0.5-0.7L398,434.1L398,434.1z M400.9,438l0.6-0.5l0.4,0.5l0.5,0.6l0.1,0.2
			l-0.6,0.5l-0.1-0.2l-0.5-0.6L400.9,438L400.9,438z M403.9,441.9l0.6-0.5l0.3,0.4l0.5,0.6l0.3,0.3l-0.6,0.5l-0.3-0.3l-0.5-0.6
			L403.9,441.9L403.9,441.9z M406.9,445.6l0.6-0.5l0,0l0.4,0.5l0.4,0.5l0.1,0.1l-0.6,0.5l-0.1-0.1l-0.4-0.5L406.9,445.6L406.9,445.6
			L406.9,445.6z M410,449.4l0.6-0.5l0.4,0.5l0.4,0.5l0.3,0.3l-0.6,0.5l-0.3-0.3l-0.4-0.5L410,449.4L410,449.4z M413.3,453l0.6-0.6
			l0.4,0.4l0.4,0.4l0.3,0.4l-0.6,0.6l-0.3-0.4l-0.4-0.4L413.3,453L413.3,453z M416.7,456.5l0.6-0.6l0.3,0.3l0.3,0.3l0.3,0.3l0.2,0.2
			l-0.5,0.6l-0.3-0.2l-0.3-0.3l-0.3-0.3L416.7,456.5L416.7,456.5z M420.4,459.7l0.5-0.7l0,0l0.2,0.2l0.2,0.2l0.2,0.2l0.2,0.2
			l0.2,0.2l0.1,0.1l-0.4,0.7l-0.1-0.1l-0.2-0.2l-0.2-0.2l-0.2-0.2l-0.2-0.2L420.4,459.7L420.4,459.7L420.4,459.7z M424.6,462.2
			l0.3-0.7l0.2,0.1l0.2,0.1l0.2,0.1l0.2,0.1l0.2,0.1l0.2,0.1l0.1,0.1l-0.3,0.8l-0.2-0.1l-0.2-0.1l-0.2-0.1l-0.2-0.1l-0.2-0.1
			l-0.2-0.1L424.6,462.2L424.6,462.2z M429.3,463.9l0.2-0.8l0.1,0l0.2,0l0.2,0l0.2,0l0.2,0l0.2,0l0.2,0l0.1,0l-0.1,0.8l-0.1,0
			l-0.2,0l-0.2,0l-0.2,0l-0.2,0l-0.2,0l-0.2,0L429.3,463.9L429.3,463.9z M434.2,464.3l0-0.8l0,0l0.2,0l0.2,0l0.2,0l0.2,0l0.2,0
			l0.2,0l0.2,0l0.2,0l0.1,0.8l-0.2,0l-0.2,0l-0.2,0l-0.2,0l-0.2,0l-0.2,0l-0.2,0L434.2,464.3L434.2,464.3L434.2,464.3z M439.1,463.4
			l-0.3-0.8l0.1,0l0.2-0.1l0.2-0.1l0.2-0.1l0.2-0.1l0.2-0.1l0.2-0.1l0.2-0.1l0.1,0l0.3,0.7l-0.1,0l-0.2,0.1l-0.2,0.1l-0.2,0.1
			l-0.2,0.1l-0.2,0.1l-0.2,0.1l-0.2,0.1L439.1,463.4L439.1,463.4z M443.5,461.3l-0.4-0.7l0.1-0.1l0.2-0.1l0.2-0.1l0.2-0.1l0.2-0.1
			l0.2-0.1l0.2-0.1l0.2-0.1l0.1-0.1l0.5,0.7l-0.1,0.1l-0.2,0.1l-0.2,0.1l-0.2,0.1l-0.2,0.1L444,461l-0.2,0.1l-0.2,0.1L443.5,461.3
			L443.5,461.3z M447.5,458.4l-0.5-0.6l0.1-0.1l0.1-0.1l0.1-0.1l0.1-0.1l0.1-0.1l0.1-0.1l0.1-0.1l0.1-0.1l0.1-0.1l0,0l0.6,0.6l0,0
			l-0.1,0.1l-0.1,0.1l-0.1,0.1l-0.1,0.1L448,458l-0.1,0.1l-0.1,0.1L447.5,458.4L447.5,458.4L447.5,458.4z M451,455l-0.6-0.5l0,0
			l0.1-0.1l0.1-0.1l0.1-0.1l0.1-0.1l0.1-0.1l0.1-0.1l0.1-0.1l0.1-0.1l0.1-0.1l0,0l0.6,0.5l0,0l-0.1,0.1l-0.1,0.1l-0.1,0.1l-0.1,0.1
			l-0.1,0.1l-0.1,0.1l-0.1,0.1l-0.1,0.1L451,455L451,455L451,455z M454.1,451.2l-0.7-0.5l0.1-0.1l0.1-0.1l0.1-0.1l0.1-0.1l0.1-0.1
			l0.1-0.1l0.1-0.1l0.1-0.1l0.1-0.1l0.1-0.1l0.1-0.1l0,0l0.7,0.5l0,0l-0.1,0.1l-0.1,0.1l-0.1,0.1l-0.1,0.1l-0.1,0.1l-0.1,0.1
			l-0.1,0.1l-0.1,0.1l-0.1,0.1L454.1,451.2L454.1,451.2z"/>
		<path class="st0" d="M402.6,294.2l9.9-7.6c1.1-8.9-11.1-31.9-14.1-32.8c-6,5.7-9.4,14.7-18,17.1c-15.8,4.4-92.9-57.4-92.9-57.4
			c-0.1-0.1-0.3-0.2-0.5-0.3c-3.3,11.5-1.7,27.3-1.7,27.3C327.9,272.3,363.3,324.2,402.6,294.2z"/>
		<path class="st0" d="M402.6,294.2l9.9-7.6c0.1-1,0.1-2.3-0.1-3.6l-1.1-1.4c-41.7,37-82-11.6-100.8-25.7c0,0-0.5,2-1.1,4.7
			C341.8,289.4,370.9,318.4,402.6,294.2z"/>
		<path class="st0" d="M514.5,307c17.5-18.8,26.5-29.1,57.6-24.6c8.5,1.2,26.9,21.4,44.1,49.7c4.9,8.1,8.1,19.3,12.9,27.9
			c21.9,38.9,41.2,79.4,42,86.8c3.2,29.1-23.3,46.6-33.7,51.8c-10.4,5.2-33,6.6-58.2,5.1C541,501.4,526.2,360.5,514.5,307z"/>
		<path class="st0" d="M575.5,290.7c0,0,23.1,18.4,14.2,23.6c-9.4,5.5-29.6,13.5-39,14.2c-5.9,0.4-7.6-26.5-1.7-30.4
			C554.8,294.2,575.5,290.7,575.5,290.7z"/>
		<path class="st0" d="M633.4,329.9c-2.2,0.9,0,16.8,14.1,43.4c14.1,26.5,21.2,37.5,21.2,37.5l-12.9-1.8
			c-11.6-24.3-28.4-49-29.9-77.4L633.4,329.9z"/>
		<path class="st0" d="M539.6,465.5c-13,8.9-48.5-37.2-54.4-49.2l7.9-7c0,0,10.5,18.1,23.7,30.6c13.3,12.5,21,13.2,21,13.2
			L539.6,465.5z"/>
		<path class="st0" d="M519.1,433c12.3,10-21.8,57-31.7,66.1l-9-5.6c0,0,14.4-15.2,22.6-31.5c8.2-16.3,6.6-23.9,6.6-23.9L519.1,433z
			"/>
		<path class="st0" d="M587.8,504.1c-88.4-4-69.6-25.2-85.8-86.9c-6.2-23.6,1.2-64,7-88.8l26.7-18.3
			C545.8,407.6,528.5,424.6,587.8,504.1z"/>
		<polygon class="st0" points="531.2,430.9 555.5,487.7 569.5,481.8 541.7,424.5 		"/>
		<path class="st0" d="M553.5,452c14,7.4-10.2,60.2-18.1,71.1l-9.9-3.7c0,0,11.1-17.7,16-35.3c4.9-17.6,1.8-24.7,1.8-24.7L553.5,452
			z"/>
		<path class="st0" d="M533.3,330.2c-22.3,45.8,14.7,93.5,14.2,94.9c-2.8,8.1-8.3,14.2-16.1,14.9c-7.8,0.7-21.5-20-28.5-41.4
			c-7-21.4,1.9-49.6,7.3-58C515.7,332.3,533.3,330.2,533.3,330.2z"/>
		<path class="st0" d="M527.7,439.1c-7.9-4.3-18.8-22.1-24.8-40.5c-7-21.4,1.9-49.6,7.3-58c3.2-4.9,10.7-7.7,16.3-9.1
			c-20.3,45.2,15.6,91.6,15.1,92.9C539.2,431.8,534.4,437.5,527.7,439.1z"/>
		<path class="st0" d="M590.5,308.1c17.9,5.2,33.6,42.9,38.7,52c0,0,1-0.7,1.2-0.8C632.5,358.4,621.8,297.5,590.5,308.1z"/>
		<path class="st0" d="M537.8,333.6c0,0,37.1-24,60.6-23.7c23.4,0.2,30.8,50.2,30.8,50.2s25.5-12.9-7.4-57.6
			c-32.8-44.7-60-44.7-84.6-31.1c-24.6,13.6-33.7,29.8-33.7,29.8L537.8,333.6z"/>
		<path class="st0" d="M537.8,333.6c0,0,37.1-24,60.6-23.7c23.4,0.2,30.8,50.2,30.8,50.2s3.9-2,6.7-7.1c0.3-26.2-23-60.8-55-51.8
			c-9.1,2.6-34.1,13.2-54.1,22.1L537.8,333.6z"/>
		<path class="st0" d="M458.7,195.3c-7.7,7.8-15.9,15.6-24.2,23.2l-47.6,43.7l21.5,32.2c12.3-9.3,23.7-16.3,35.5-26.7
			c-1.2,15.7-7.3,49.1-14.2,74.8c-6.9,25.8-43.8,26.3-43.8,26.3c8.7,12.3,78.2,118.6,97.1,97.7c41.9-46.4,82.8-178.5,71.4-241.7
			c-5.7-31.8-27.2-48.4-48.7-50.2C488.6,173.2,472.2,181.6,458.7,195.3z"/>
		<path class="st0" d="M525.6,277.4l30.1-13c0,0,14.7-0.3,20,11.4c5.3,11.7-12.9,69.9-21.4,83.2c-8.4,13.3,7.3,49-5.4,71.4
			c-12.7,22.4-18.6,38.3-20.8,42.8c-2.3,4.5-15.3-2.7-15.3-2.7l-7.2-37.4L525.6,277.4z"/>
		<path class="st0" d="M445.4,447c15.8,16.8,30.3,27.3,37.5,19.4c41.9-46.4,82.8-178.5,71.4-241.7c-4.7-25.9-19.7-41.7-36.7-47.6
			c3.5,3.1,7.7,7,10.5,9.8c5.5,5.5,18.6,32,18.6,38.4c0,6.3-1.7,11.8-1.7,11.8l-9,20.6c0,0-19.3,37.6-20.3,37.1
			c-1-0.6-25.1,38.5-32.9,51.5c-7.8,12.9-3.9,16.8,0,32.4c3.9,15.5-6.5,25.2-24.6,28.5c-18.1,3.2-25.9,7-18.7,14.2
			C443.4,425.1,445,436.4,445.4,447z"/>
		<path class="st0" d="M403.7,287.4l4.6,6.9c12.3-9.3,23.7-16.3,35.5-26.7c0,0,4.9-23.7,5.7-29.4c0.8-5.7,3-13.9,3-13.9
			s-8.4,22.7-11.1,29.7C439.2,259.9,412.5,280.7,403.7,287.4z"/>
		<path class="st0" d="M511.2,176.8c-1.5-1.4-4.1-1.1-5.4-1c-5,0.6-8.5,3.3-13,5.4c-7.8,8.6-20.8,23.7-20.8,23.7s-4.3,24.6-3.9,26.1
			c0.4,1.5,2.3,2.5,7-1.3C485.9,221.1,515.8,182.3,511.2,176.8z"/>
		<path class="st0" d="M381.8,65.5c-15,27-21.7,43.1-16.3,56.2c1.2,2.8,10.6,6.5,10.5,9.4c-0.2,16.7-20.6,26.9-18.4,30.1
			c2.2,3.2,9.8,3.8,16.3,3.9c1.1,5.5,3.9,11.7,3.3,17.7c-0.3,2.8,9,1.4,9,1.4c-2,6.5,2.1,7.2,6.7,7.6c3.6,0.3-0.3,9.4,9.9,13.1
			c10.3,3.7,27-2.3,43.1-7.3c16.2-5,19.1-8,19.1-8c10.3,17.6,4.4,39,5.9,38c15.2-10.3,38.7-44.9,36.9-48.5c0,0-11.5-28.2-9.4-32.6
			c20.5-41.5,6.2-79.7-23.2-97.3C445.5,31.5,400,32.7,381.8,65.5z"/>
		<path class="st0" d="M364.7,122.3c0.6,2.7,7.1,4.7,7.5,4.7C374.6,123.4,363.8,118.3,364.7,122.3z"/>
		<path class="st0" d="M386.3,126.8l3.8-3.5l6-3.4l6.1-0.3l5,5.6l-6.8,16c-2.4,5.7,3.3,16.1-1.5,22.1c-2.7,3.4-2.8,1.8-4.1-2.6
			c-0.4-1.2-2-18-2-18L386.3,126.8z"/>
		<path class="st0" d="M400.9,130c-0.8,0.2-11.1,0.2-11.1,0.2c0.8,2.3,1.9,4.4,3.6,5.9C397.1,133.5,400.9,130,400.9,130z"/>
		<path class="st0" d="M395.4,197.2L395.4,197.2l0,0.1l0,0l0,0.1l0,0.1l0,0l0,0.1l0,0.1l0,0l0.1,0.2v0c0,0.1,0.1,0.3,0.1,0.4l0,0
			c0.9,2.4,2.7,5,7.1,6.6c10.3,3.7,27-2.3,43.1-7.3c4-1.2,16.7-5.1,19.1-8l0,0c7.2,12.4,6.2,30.5,5.7,37.5
			c4.6-20.2-1.9-33.8-3.9-39.4c1.8-2.2,8-9.6,9.7-11.9c-0.6,5.2-1.3,10.8-0.9,10.4c0.6-0.8,12.5-12.2,14.3-16
			c1.8-3.7,3.2-7.7,3.2-7.7l1.6,20.5c0,0,7-11,8-17.8c1-6.8,0.8-9.5-1.6-11.6c-1.5-1.3-6.5-3.8-10.6-5.2c0.6-1.8,1.2-3.6,1.7-5.4
			l-4,4.7c-1.3-0.3-2.4-0.3-2.9,0c-0.9,0.6-2.4,4-3.8,7.8l-1.4,1.6l-3.9-11.5c-0.7-0.2-1.5,0.1-6.9-1.1c19.9,28-46.3,69.3-69.9,56.2
			c-0.7-1.4-1.9-3.7-1.9-6.3c0-4,3.5-6.4,3.5-6.4s-5.4,2.8-7,3.4c-0.3,0.1-0.6,0.2-0.9,0.3c1.7,0.2,1.6,2.5,2.3,5.2l0,0L395.4,197.2
			z"/>
		<path class="st0" d="M459.6,192.8c4.4-2,5.5-3,5.5-3l0,0c1.5-1.5,2.9-3.1,4.3-4.7c0.7-0.8,1.3-1.6,2-2.4c-0.4-2.6-0.6-4.4-0.6-4.4
			L459.6,192.8z"/>
		<path class="st0" d="M357.5,160.4c0,0.3,0,0.5,0.1,0.8c2.2,3.2,7,4.1,13.5,4.2c0,0,6.3-0.5,7.3-2c1-1.6-3.2-1.4-3.9-1.3
			C373.7,162.3,357.6,160.5,357.5,160.4z"/>
		<path class="st0" d="M386.3,184.2c0,0-1.2,2.9-0.1,4.9c9.2,1.7,13.8-4.7,15.3-6.4C401.7,182.5,395.9,184.7,386.3,184.2z"/>
		<path class="st0" d="M407,125.4c-14.1-6.7-22.5,5.5-26.2,3.6c-6.7-3.5,16-18.1,26.2-7.2c0.5,0.5,1.1,1.5,1.2,2.4
			C408.5,125.3,408.3,126,407,125.4z"/>
		<path class="st0" d="M463.5,113.9c-5.8,13-3.4,18.1-6.8,23.2c-0.1,0.1-6,2.2-6.2-1.2c-0.9-13,2.3-50.1-5.8-57
			c-40.8,43.4-77.3,35.9-105.3,32.3c-0.6-0.1,14.6-1.8,25.2-8.4c-45.2,3.3-50.8-25.5-49.7-25.5c61.6,1.7,65.6-54.7,114.5-53.1
			c20.8,0.7,32.4,8.9,32.4,8.9C516.2,17.9,523,116.9,509,157c-3.8,11-8.6,18.5-10.4,20.3c0.9-3,2-18.8,2-20.1
			c0-1.3-2.2,6.5-6.9,11.9c-4.7,5.4-9.8,9.8-12.1,10.3c1.7-1.1,4.9-15.1,6.1-19.2c1.2-4.1,2.1-10,2.1-10s0.5-0.8-4.3,5.6
			c-4.8,6.4-9.7,10.3-11.8,10.6c1.7-1.1,2.7-24.7,2.7-24.7s8.1-0.1,11.8-14.9c3.7-14.9-1-23.1-4.4-25.1
			C473.6,95.8,467.3,105.3,463.5,113.9z"/>
		<path class="st0" d="M461.8,33.1c33.3-9.3,48.7,24.1,52.5,60.7c-0.7-5.4-9.8-21-9.8-21s1.6,3.2,2.1,20.2
			c0.5,16.9-1.1,45.9-1.8,49.8c-0.6,3.9-1.6-40.1-6.2-52.8c-4.5-12.6-13.9-26.9-13.9-26.9s1.6,9.4,1.6,19.7c0,5.1-1.5,12.5-3,18.7
			c-1-0.5-1.9-1-2.9-1.2c-0.5-10.4-3-25-12.1-35.8c-6.8-8-12.4-12.9-16.7-15.9c-20.6,14.2-56.2,37.5-117.5,34
			c40.4-8.7,73.2-16.9,108.9-38.3L461.8,33.1z"/>
		<path class="st0" d="M502.1,172.2c-1.5,2.6-2.8,4.4-3.5,5.1c0.9-3,1.8-18.7,1.8-20l2.9-9.3C505.9,151.6,506.9,162.3,502.1,172.2
			L502.1,172.2z M486.2,176.6c-1.9,1.6-3.5,2.6-4.6,2.9c1.7-1.1,4.9-15.1,6.1-19.2c1.2-4.1,2.1-10,2.1-10s0.5-0.8-4.3,5.6
			c-4.8,6.4-9.7,10.3-11.8,10.6c1.7-1.1,2.7-24.7,2.7-24.7s1.9,0,4.4-1.8c-0.5,7.3-1.2,16.3-3.4,23.3c6.5-9.6,12-16.3,16.8-27
			C497.5,144,497.7,157.5,486.2,176.6z"/>
		<path class="st0" d="M358.7,65.6c24.6-16,37-42.5,70.7-41.4c20.8,0.7,32.4,8.9,32.4,8.9s-11.9-1.9-33.5,0.8
			c-21.6,2.7-26,10.2-50.4,23.5C371.2,61.1,364.6,63.7,358.7,65.6z"/>
		<path class="st0" d="M450.4,136c-0.9-13,2.3-50.1-5.8-57c-40.8,43.4-77.3,35.9-105.3,32.3c53.7-0.6,65.3-14.3,106-47.6
			C458,73.9,452.2,120.1,450.4,136z"/>
		<path class="st0" d="M364.6,102.8c-45.2,3.3-50.8-25.5-49.7-25.5c19.6,29,50.2,18.6,66,17.3C378.1,96.7,366.8,101.6,364.6,102.8z"
			/>
		<path class="st0" d="M463.5,113.9c-2-0.8-53.1,7.1-69.7,26l-5.8-9.1l79.7-26.7L463.5,113.9z"/>
		<path class="st0" d="M461.3,125.8c-0.3-1.1-1.3-12.3,2.3-20c3.6-7.7,11.8-11.3,18.6-8.1c6.8,3.2,10.2,12.2,9.9,22.1
			c-0.3,9.8-6.1,19.9-10.6,23.8c-4.6,3.9-14.3,2.5-16.5-3.1C462.7,134.8,461.3,125.8,461.3,125.8z"/>
		<path class="st0" d="M468.5,111.6c0.8-2.4,4.4-10,10.3-7.2c6,2.8,8.1,7.8,6.6,17.4c-1.6,9.6-4.1,16.9-8.4,16.4
			c-4.3-0.5-8.3-5.7-6-9.3c2.3-3.5,4.8-3.8,2-7.3c-2.9-3.5-4.5-0.9-4.7-3.6C468,115.2,468.5,111.6,468.5,111.6z"/>
		<g>
			<path class="st0" d="M396,143.7c-4.1-10.7-10.2-18.3-13.7-17c-3.4,1.3-2.8,11.1,1.3,21.8c4.1,10.7,10.2,18.3,13.7,17
				C400.7,164.2,400.1,154.4,396,143.7L396,143.7z M382.9,128.3c1.3-0.5,4.1,2.7,4.7,3.5c2.9,3.6,5.2,8.3,6.8,12.6
				c1.7,4.3,3.1,9.3,3.4,13.9c0.1,1,0.1,5.2-1.1,5.7c-1.3,0.5-4.1-2.7-4.7-3.5c-2.9-3.6-5.2-8.3-6.8-12.6c-1.7-4.3-3.1-9.3-3.4-13.9
				C381.7,133,381.6,128.7,382.9,128.3z"/>
			<path class="st0" d="M394.4,144.3c-1.7-4.3-4-9-6.8-12.6c-0.6-0.8-3.4-4-4.7-3.5c-1.3,0.5-1.2,4.7-1.1,5.7
				c0.3,4.6,1.7,9.6,3.4,13.9c1.7,4.3,4,9,6.8,12.6c0.6,0.8,3.4,4,4.7,3.5c1.3-0.5,1.2-4.7,1.1-5.7
				C397.5,153.6,396.1,148.6,394.4,144.3z"/>
			<path class="st0" d="M391.8,138.5c-1.2-2.4-2.7-4.8-4.3-6.8l-0.1-0.2L386,150c1.3,3,2.8,6,4.7,8.7
				C391,153.4,391.5,145.4,391.8,138.5z"/>
		</g>
		<path class="st0" d="M380.5,132.4c-2.2-1.4-5.1-2.3-5.5-0.2l-2-2.5c0,0-0.1-0.9,1.6-1.5c1.7-0.6,6.5,0.8,6.5,0.8L380.5,132.4z"/>
		<path class="st0" d="M472.8,339.1l21.7-29.2c-0.3-8.9-16.7-28.9-19.9-29.4c-5,6.6-32.5,39.8-32.5,39.8
			c-7.3,5.8-93.7-45.5-93.7-45.5c-0.1-0.1-0.3-0.2-0.5-0.2c-1.4,11.9,0.8,34,0.8,34C396.1,332.9,439,375.1,472.8,339.1z"/>
		<path class="st0" d="M472.8,339.1l21.7-29.2c-0.1-2.5-1.4-5.7-3.3-9.2c-19.7,33.9-28.8,55.7-73.8,37.8c-12.6-5-60-31.5-60-31.5
			s-3.8-0.5-8.8-1.2c0.1,1.7,0.2,2.7,0.2,2.7C396.1,332.9,439,375.1,472.8,339.1z"/>
		<path class="st0" d="M494.9,227.7c-4.5,13.8-9.1,21.6-29.7,51.3c14.5,0.9,30.7,40.1,32.5,40.1c10.8-0.6,44-71.9,48.6-85.7
			c-20.4,46.6-47.8,80.1-47.8,80.1c-5.2-16.9-14.7-27.9-29.4-37.4C487.2,250,490.7,242.7,494.9,227.7z"/>
		<path class="st0" d="M242.2,224c-1.5-2-43.3-62.9-43.3-62.9l33.2-29.6l1.7,0.2l25.9,84.4L242.2,224z"/>
		<path class="st0" d="M244,224.2c-1.5-2-43.3-62.9-43.3-62.9l33.2-29.6l27.7,84.6L244,224.2z"/>
		<path class="st0" d="M360.2,284.5c-0.3-0.9,3.1-4.6,3.1-4.6s-3.9-9.2-15.7-17.9c-11.8-8.8-41.5-19.7-41.5-19.7
			C298.6,253.4,351.9,279.8,360.2,284.5z"/>
		<polygon class="st0" points="287.4,170 300.8,168.7 338.5,276.2 324.8,282.7 		"/>
		<path class="st0" d="M200.4,163.4c34.6-6.3,79.1-0.7,100.5,5.3c0,0-4.2,0.7-5.2,4.2l-95-7.5L200.4,163.4z"/>
		<path class="st0" d="M200.1,163l1,0.3l0.3,0c7.5-5.6,30-20.9,33.9-28.1l-1.6-3.3l-32.3,28.6l-1.6,1.4L200.1,163z"/>
		<polygon class="st0" points="201.2,160.8 201.6,164.6 202.4,164.7 200.2,167 199,166.9 198.9,161.2 		"/>
		<polygon class="st0" points="295.7,172.9 201.6,164.6 199,166.9 255.2,288.1 340.3,312.5 342.9,310.3 		"/>
		<polygon class="st0" points="316.2,305.6 340.3,312.5 342.9,310.3 295.7,172.9 293,175.2 283,187.8 		"/>
		<polyline class="st0" points="293,175.2 199,166.9 252.6,290.4 340.3,312.5 		"/>
		<path class="st0" d="M275.2,173.6l-76.2-6.7l48.4,111.4c18.3-15,30.7-44.1,30.7-77.5C278,191.4,277,182.2,275.2,173.6z"/>
		<path class="st0" d="M297.5,256.5c-2.2,7.3,11.6,9.5,15.1,10.3c11.6,2.9,16.2,5,16,5.8c-0.2,0.9-19.1-4-30.4-5.6
			c-11-1.6-12.4,5.1-6,7.6c3.9,1.5,9.4,3.5,16.7,5.1c8.7,1.9,19.8,3.6,19.6,4.8c-0.2,1.4-24.3-1.7-31.8-2.4
			c-6.3-0.6-6.8,5.4-1.2,7.2c8.8,2.9,32.6,5,32.3,6.2c-0.3,1.4-20.2-0.5-21.7-0.8c-4.7-0.9-7.6,3.4-1.6,6.1c4.6,2,14.6,3.1,21.7,5
			c21.9,5.9,34.4,12.4,44.1-9.7l-7.7-17.6C357.8,267.7,299.6,249.4,297.5,256.5z"/>
		<path class="st0" d="M383.1,293.5c0,0-14.6,27.3-15.1,27.5c-0.5,0.2-10.9-5.8-11.5-6.4c-0.6-0.6,13.8-28.1,13.8-28.1L383.1,293.5z
			"/>
		<polygon class="st0" points="201.2,160.8 233.8,131.8 232,131.6 198.9,161.2 200.2,161 		"/>
		<path class="st0" d="M138.8,489.4c-1.5,2.6-8.5,10.4-10.5,9.3C112.8,492,17.1,411.8,18.1,405c0.4-2.2,1.9-7.9,4.9-8.9
			c0.7-0.2,1.4,0.4,1.6,0.5c35.9,41.7,68.9,60.6,114.5,91.3C139.6,488.2,139.2,488.9,138.8,489.4z"/>
		<path class="st0" d="M371.7,309.1c6.3,0,11.4-4.8,11.4-10.6c0-5.8-5.1-10.6-11.4-10.6s-11.4,4.8-11.4,10.6
			C360.3,304.4,365.5,309.1,371.7,309.1z"/>
		<path class="st0" d="M371.7,306.2c4.6,0,8.3-3.5,8.3-7.7c0-4.2-3.7-7.7-8.3-7.7c-4.6,0-8.3,3.5-8.3,7.7
			C363.5,302.8,367.2,306.2,371.7,306.2z"/>
		<path class="st0" d="M371.7,290.8c2.6,0,4.8,1.1,6.4,2.8c-4.4,2.6-9.5,5.6-13.8,8.2c-0.5-1-0.8-2.1-0.8-3.3
			C363.5,294.3,367.2,290.8,371.7,290.8z"/>
		<path class="st0" d="M315.4,441.9c-0.8-0.2-82.2-7-82.2-7l-1.9,21.4l84.6,10.5L315.4,441.9z"/>
		<path class="st0" d="M171.9,465.4C171.1,465.2,113,405,113,405l-19.5,9.9l58,65.9L171.9,465.4z"/>
		<path class="st0" d="M620,374c3.9,0,32.1,56.5,34.9,72.4c2.8,15.9,0.7,24.4-7.4,31.2c-8.1,6.8-41.6,19.9-56,7.2
			c-14.4-12.6-27.8-83.4-28.7-86.4C553.3,366.3,614,362.1,620,374z"/>
		<path class="st0" d="M550.8,444.6l-11.4,5.2c-1.3,0.6-1.9,2.1-1.3,3.4l4.1,9c0.6,1.3,2.1,1.9,3.4,1.3l11.4-5.2
			c1.3-0.6,1.9-2.1,1.3-3.4l-4.1-9C553.7,444.6,552.1,444,550.8,444.6z"/>
		<path class="st0" d="M624.8,370.6c5.8,6.2,10.9,19.8,12,26.5c1,6.8-8.1,13-19.7,20.4c-11.7,7.4-39.4,17.4-47.1,11.8
			c-7.6-5.6-17-35.1-13.1-44.8c3-7.5,46.7-25.2,57.3-21.7C621.8,365.4,624.8,370.6,624.8,370.6z"/>
		<path class="st0" d="M602.3,416.3c4,0,7.3-3.1,7.3-7c0-3.8-3.3-7-7.3-7c-4,0-7.3,3.1-7.3,7C595,413.1,598.2,416.3,602.3,416.3z"/>
	</g>
</g>
</svg>
